<?xml version="1.0" standalone="no"?>
<!DOCTYPE svg PUBLIC "-//W3C//DTD SVG 20010904//EN"
 "http://www.w3.org/TR/2001/REC-SVG-20010904/DTD/svg10.dtd">
<svg version="1.0" xmlns="http://www.w3.org/2000/svg"
 width="2029.000000pt" height="875.000000pt" viewBox="0 0 2029.000000 875.000000"
 preserveAspectRatio="xMidYMid meet">
<metadata>
Created by potrace 1.16, written by Peter Selinger 2001-2019
</metadata>
<g transform="translate(0.000000,875.000000) scale(0.100000,-0.100000)"
fill="#000000" stroke="none">
<path d="M5365 5814 c-11 -3 -43 -14 -72 -26 -59 -22 -56 -16 -68 -182 -3 -44
-10 -107 -16 -141 l-11 -62 -181 -13 c-222 -15 -398 -40 -537 -75 -96 -25
-128 -28 -380 -35 -299 -9 -325 -13 -468 -74 -46 -20 -93 -38 -105 -41 -12 -2
-49 -11 -82 -20 -145 -36 -487 -44 -720 -16 -80 9 -182 -2 -201 -21 -9 -9 -11
-26 -8 -50 5 -28 12 -38 31 -43 14 -3 21 -10 17 -17 -4 -7 -3 -8 4 -4 6 4 24
0 40 -8 16 -8 31 -13 33 -11 3 2 49 -3 104 -10 55 -8 201 -20 325 -26 308 -16
584 -2 805 41 88 17 198 32 245 33 82 2 88 1 184 -45 97 -46 100 -49 171 -140
40 -52 83 -101 96 -110 56 -39 154 -144 217 -233 82 -116 111 -165 185 -314
l51 -103 -23 -188 c-33 -267 -27 -406 23 -546 28 -79 37 -123 42 -201 l7 -101
-114 -27 c-120 -28 -177 -50 -190 -75 -5 -8 -18 -48 -30 -87 l-21 -73 -150 0
-149 0 -37 42 c-20 22 -56 62 -79 87 -23 25 -40 47 -39 49 2 1 44 -6 95 -18
101 -22 166 -25 208 -9 30 11 73 47 73 61 0 4 -44 8 -97 8 l-97 0 -48 41 -49
41 -103 5 -104 6 -22 -77 c-13 -42 -28 -76 -34 -76 -6 0 -28 11 -48 25 -33 22
-47 25 -126 25 l-89 0 -7 61 c-3 34 -6 79 -6 100 l0 39 -50 2 c-27 0 -56 1
-62 2 -13 1 -14 -40 -3 -91 5 -20 0 -23 -55 -29 -34 -4 -60 -11 -60 -18 1 -17
87 -104 130 -131 20 -13 53 -25 71 -27 27 -2 35 -8 37 -27 3 -21 1 -23 -25
-17 -32 8 -120 62 -125 77 -2 5 -35 12 -73 15 -39 3 -71 7 -73 9 -1 1 -12 51
-24 111 -12 60 -26 114 -32 120 -12 12 -146 68 -151 62 -1 -2 -7 -25 -13 -51
-12 -58 -6 -63 59 -48 76 18 79 17 79 -34 l0 -45 -130 0 -131 0 8 53 c4 28 7
66 8 82 l0 30 -87 3 -87 3 -60 66 c-67 72 -66 70 -31 166 10 26 14 49 9 52 -5
4 -32 13 -61 21 -88 25 -115 42 -169 104 -28 33 -71 69 -95 81 -73 35 -91 25
-238 -128 -71 -74 -146 -155 -167 -182 -21 -26 -56 -60 -79 -75 l-41 -27 -43
32 c-38 26 -49 43 -77 117 -19 48 -34 89 -35 92 0 3 -7 21 -15 40 -9 19 -28
67 -43 107 l-27 72 -64 20 c-35 12 -79 21 -97 21 -66 0 -124 -55 -189 -177
l-36 -68 -394 -6 c-293 -4 -408 -10 -449 -20 l-55 -14 -8 -70 c-13 -106 -1
-438 22 -635 33 -273 39 -336 51 -477 l11 -133 -52 -102 c-28 -57 -65 -130
-81 -163 -16 -33 -34 -69 -40 -80 -38 -67 -68 -137 -68 -158 0 -34 54 -179 93
-250 l32 -58 159 -3 c114 -1 161 -6 164 -14 4 -14 181 -165 235 -202 20 -14
37 -28 37 -32 0 -5 5 -8 11 -8 6 0 36 -17 67 -37 31 -20 58 -37 59 -38 1 0 10
-33 21 -72 18 -67 18 -78 5 -150 -8 -43 -16 -89 -18 -103 -2 -14 -5 -32 -7
-40 -2 -12 11 -16 64 -18 48 -2 68 -7 68 -16 0 -14 -44 -77 -79 -114 -34 -35
-18 -44 62 -37 63 5 189 27 238 41 9 2 56 50 104 105 66 75 92 99 106 96 11
-3 17 -1 14 3 -3 5 7 10 22 12 24 3 28 9 39 65 20 98 100 233 139 233 7 0 52
-14 100 -31 l87 -30 51 39 52 40 67 -11 c51 -8 96 -6 200 7 73 9 150 16 171
16 35 0 38 2 31 23 -3 12 -22 52 -40 89 l-34 67 53 -6 c37 -4 56 -11 67 -26
43 -59 120 -113 259 -179 l104 -50 216 -8 c217 -7 238 -10 275 -39 30 -24 126
-125 126 -133 0 -4 30 -17 68 -29 93 -30 275 -36 463 -16 133 15 206 20 236
18 7 -1 15 -17 19 -36 3 -19 12 -51 20 -72 l13 -38 1 43 0 44 63 -7 c34 -4
107 -16 162 -27 55 -11 159 -24 230 -28 107 -6 148 -13 230 -41 l100 -32 275
-7 c283 -7 346 -15 498 -62 37 -11 96 -34 131 -50 74 -35 109 -33 198 7 29 14
57 25 62 25 26 0 28 99 2 155 -10 22 -38 58 -62 80 l-44 41 3 86 3 86 74 -25
74 -25 7 -57 6 -58 72 -13 c77 -14 164 -43 210 -71 25 -15 34 -32 55 -111 l26
-92 105 -12 c211 -24 321 -65 412 -156 58 -58 58 -58 119 -58 79 0 190 26 231
54 30 20 33 27 32 70 0 43 -5 52 -35 76 -18 16 -36 28 -39 27 -3 0 -18 2 -35
6 -16 3 -62 11 -102 17 -66 11 -77 16 -125 61 -31 28 -92 68 -145 94 -51 25
-93 47 -93 50 0 31 26 107 41 121 20 18 23 17 112 -28 51 -26 142 -81 202
-122 192 -131 377 -238 390 -225 2 3 -10 31 -27 64 -27 53 -29 63 -19 95 19
63 40 74 123 67 40 -4 89 -11 109 -17 l36 -10 7 -92 c7 -93 41 -205 61 -201 5
1 13 19 18 40 13 67 27 90 65 107 162 70 325 120 444 137 105 15 186 3 293
-42 91 -40 200 -47 337 -25 54 9 133 16 176 16 72 0 83 -3 120 -30 22 -16 69
-63 103 -104 l62 -74 31 13 c17 8 54 25 81 38 28 14 64 27 81 31 l31 7 22
-123 c34 -185 29 -177 80 -123 18 19 38 35 44 35 7 0 48 -14 92 -31 44 -17
100 -37 125 -46 25 -9 51 -20 58 -26 20 -16 24 -2 17 58 -5 35 -15 65 -26 76
-10 10 -81 66 -159 123 -187 141 -278 224 -343 314 -28 39 -34 42 -76 42 -55
0 -64 8 -120 113 -22 39 -48 77 -58 82 -10 6 -21 15 -25 20 -4 6 -8 2 -8 -8 0
-16 -9 -17 -85 -15 -95 3 -81 -10 -125 117 -18 52 -20 65 -9 72 11 7 11 9 -1
9 -9 0 -23 13 -33 29 -25 43 -113 128 -163 157 -24 14 -41 30 -38 35 3 5 33
23 66 39 34 17 67 38 73 47 7 10 17 13 25 8 8 -5 11 -4 6 3 -3 5 9 20 29 32
19 11 54 43 79 71 37 41 52 51 96 59 28 5 54 9 58 8 12 -4 255 94 312 125 143
79 265 194 433 407 46 58 261 398 297 470 16 32 42 99 56 147 23 75 27 107 27
218 1 113 -3 140 -24 205 -29 88 -18 85 -176 42 -102 -28 -195 -42 -632 -102
-85 -12 -171 -27 -190 -35 -20 -7 -66 -25 -103 -39 -36 -14 -106 -30 -155 -36
-263 -34 -299 -41 -360 -70 -59 -29 -65 -30 -162 -24 -103 6 -174 -2 -331 -37
-47 -11 -95 -22 -106 -24 -14 -3 -24 -15 -27 -32 -3 -16 -12 -36 -19 -46 -12
-16 -18 -16 -113 8 -134 35 -248 42 -354 22 -46 -9 -90 -22 -98 -28 -23 -20
-7 -105 27 -143 81 -91 67 -84 151 -77 67 5 80 10 113 39 68 59 102 61 158 8
28 -26 62 -113 56 -143 -3 -15 -18 -19 -93 -23 -89 -5 -90 -5 -87 -30 5 -36
38 -80 93 -123 27 -20 49 -45 49 -55 0 -24 -36 -80 -76 -121 -19 -19 -33 -39
-31 -45 2 -6 22 -11 46 -13 45 -3 149 -27 191 -44 14 -5 41 -30 60 -56 18 -25
55 -63 81 -85 26 -22 49 -48 52 -59 3 -10 4 -19 2 -19 -2 0 -38 33 -79 73 -76
74 -161 127 -205 127 -13 0 -52 -16 -87 -35 l-62 -35 -46 61 c-34 45 -47 73
-52 109 l-6 49 -65 7 c-35 3 -68 3 -73 -2 -12 -13 -30 -143 -30 -219 0 -61 -2
-66 -26 -75 -48 -19 -49 -16 -46 80 4 89 4 90 -20 90 -42 0 -98 -20 -108 -39
-5 -10 -21 -77 -35 -147 -14 -71 -30 -144 -36 -163 -11 -31 -13 -33 -48 -27
-20 3 -73 6 -118 6 l-81 0 -7 31 c-4 17 -5 32 -2 35 2 2 36 -9 75 -26 81 -34
122 -38 145 -12 13 15 14 20 2 42 -18 31 -19 89 -3 179 10 57 9 75 -3 106 -8
21 -20 40 -26 42 -6 2 -42 -31 -79 -75 -55 -65 -70 -78 -90 -74 -36 7 -30 16
31 47 30 16 55 34 55 40 -1 14 -88 82 -135 105 -22 10 -53 20 -70 22 l-30 3
-6 -165 c-7 -162 -6 -166 18 -213 13 -27 22 -51 20 -53 -8 -8 -101 62 -131 99
l-29 37 21 112 c11 62 24 132 27 156 6 36 14 48 47 70 l39 27 -4 63 c-5 73
-12 71 121 37 156 -39 208 -40 357 -10 72 15 171 36 220 46 50 10 94 18 98 19
8 0 -3 122 -12 136 -1 1 -29 -5 -63 -12 -84 -18 -229 -42 -362 -59 -115 -16
-362 -20 -369 -7 -2 4 0 37 6 73 9 62 8 68 -12 90 -16 17 -21 35 -21 76 0 52
-1 53 -42 75 -50 25 -147 50 -161 41 -6 -3 -121 -10 -256 -14 -240 -7 -374
-24 -409 -52 -7 -5 -14 -8 -16 -6 -2 2 10 53 27 112 33 120 30 134 -24 116
-62 -21 -149 -123 -149 -175 0 -14 -7 -16 -39 -11 -22 3 -54 12 -72 21 -47 23
-116 21 -131 -4 -14 -22 -42 -25 -83 -10 l-26 10 7 94 c9 126 7 129 -51 108
-42 -15 -48 -22 -64 -67 -16 -45 -16 -56 -4 -103 8 -30 13 -68 11 -85 -3 -28
-7 -32 -43 -39 -65 -10 -94 20 -110 114 -7 43 -64 112 -114 138 -47 24 -96 76
-115 122 -18 42 -13 51 53 93 76 48 138 121 160 187 49 152 64 340 36 448 -7
30 -32 107 -55 170 -38 105 -41 122 -38 197 3 74 6 86 36 129 l34 47 -19 91
c-26 130 -23 254 8 331 23 56 28 62 96 100 70 39 73 42 88 95 16 56 36 110 95
255 18 44 36 90 41 101 8 22 68 39 404 114 149 33 241 54 435 99 96 23 184 43
195 45 11 2 54 14 95 25 41 11 154 38 250 60 96 21 215 54 264 72 80 29 87 33
65 42 -45 17 -251 -1 -519 -47 -146 -25 -375 -59 -510 -76 -135 -16 -301 -39
-370 -49 -69 -11 -156 -22 -195 -26 -108 -9 -225 -35 -283 -61 -44 -20 -68
-24 -151 -24 l-99 0 -18 53 c-26 80 -60 142 -93 170 -16 13 -29 26 -28 28 1 2
0 3 -2 2 -2 -1 -17 5 -34 13 -30 16 -164 28 -202 18z m603 -502 c-4 -48 -14
-98 -28 -129 -21 -49 -78 -113 -100 -113 -13 0 -81 46 -128 88 -29 25 -32 32
-23 53 6 13 19 56 31 96 11 39 26 74 33 76 6 3 59 6 116 6 l104 1 -5 -78z
m-818 -54 c0 -2 -7 -25 -16 -53 -39 -128 -106 -363 -110 -385 -3 -14 -8 -39
-12 -55 l-8 -30 -91 -3 -91 -3 -56 52 c-31 28 -55 54 -52 56 2 2 -6 15 -19 29
-34 37 -94 164 -101 215 l-6 46 74 11 c85 13 219 56 293 95 40 21 64 26 123
27 39 0 72 -1 72 -2z m3865 -2534 c119 19 112 20 130 -14 21 -41 28 -39 220
55 149 73 238 104 268 92 11 -4 16 -24 19 -74 4 -58 1 -71 -15 -86 -30 -26
-117 -48 -207 -50 l-80 -2 -16 -41 -15 -41 -70 12 c-38 7 -69 9 -70 6 0 -3 0
-49 1 -101 2 -147 -35 -255 -115 -337 -25 -25 -40 -33 -69 -33 -20 0 -36 3
-36 7 0 4 15 23 34 43 46 47 101 151 121 225 20 80 19 90 -9 93 -57 4 -74 19
-82 67 l-6 46 -42 -6 c-22 -3 -71 -21 -108 -39 l-67 -34 -39 25 c-21 14 -50
44 -65 68 -26 41 -56 150 -44 161 3 3 31 -6 63 -20 31 -14 61 -26 68 -26 6 0
22 17 36 37 14 20 41 52 60 71 l34 33 36 -71 c33 -68 36 -71 65 -66z m-1885
-138 c30 -28 65 -58 77 -66 17 -11 21 -22 16 -42 -4 -23 -15 -30 -89 -53 -123
-39 -183 -42 -279 -14 -75 23 -95 24 -322 23 -140 -1 -243 2 -243 8 0 5 6 23
14 41 14 35 42 51 156 86 36 11 72 22 81 26 10 4 28 -4 47 -19 37 -32 42 -32
72 -3 82 76 71 73 251 69 l164 -4 55 -52z m2675 -93 c-4 -43 -9 -81 -12 -85
-12 -20 -150 3 -184 31 -22 17 -22 17 27 48 50 33 152 83 168 83 4 0 5 -35 1
-77z m-425 -63 l0 -40 68 0 68 0 72 -72 c39 -39 70 -73 68 -75 -1 -2 -37 3
-78 11 -41 8 -107 18 -146 21 -62 7 -79 13 -142 55 l-71 47 35 27 c19 14 38
26 43 26 4 0 19 9 33 20 38 30 50 25 50 -20z m-460 -25 c-14 -15 -49 -42 -79
-62 -48 -32 -57 -35 -90 -27 -32 8 -36 12 -33 38 6 55 45 75 146 76 l79 0 -23
-25z m-1730 -122 c25 -9 51 -20 58 -26 8 -6 12 -6 12 1 0 5 8 12 18 14 18 5
18 3 5 -36 -8 -22 -17 -62 -20 -88 -3 -27 -10 -48 -15 -48 -5 0 -54 14 -110
30 -55 17 -109 30 -118 30 -10 0 -41 -24 -70 -52 l-51 -53 3 80 3 80 51 5 c41
4 63 14 105 48 32 25 60 39 69 36 8 -3 35 -13 60 -21z m-804 2 c44 -3 135 -2
204 3 69 6 126 9 126 9 1 -1 5 -12 8 -24 7 -23 -3 -37 -69 -92 l-29 -24 -90
22 c-50 13 -122 29 -160 37 -99 20 -106 23 -106 48 0 27 9 38 26 32 6 -2 47
-7 90 -11z m340 -300 c47 -20 126 -56 175 -81 80 -40 89 -47 83 -66 -23 -73
-136 -91 -224 -37 -61 38 -157 69 -210 69 -38 0 -38 1 -30 29 12 43 40 82 75
102 16 11 34 19 38 19 5 0 46 -16 93 -35z m1639 -272 c5 -23 8 -23 159 -23 84
0 181 -3 215 -6 60 -7 63 -8 88 -51 23 -39 47 -113 39 -120 -2 -2 -49 6 -105
17 -131 26 -334 41 -445 33 l-88 -6 6 -30 c3 -16 6 -45 6 -63 l0 -34 220 0
c121 0 242 -5 270 -11 29 -6 59 -12 68 -13 9 -1 27 -22 40 -47 22 -41 23 -52
18 -164 -6 -145 -10 -161 -44 -169 -44 -11 -491 -19 -604 -11 l-105 7 -26 86
c-25 85 -26 112 -4 94 40 -32 321 -65 507 -60 l115 3 -3 60 c-4 97 1 95 -252
95 -190 0 -226 3 -281 20 -35 11 -69 23 -76 28 -18 12 -28 96 -25 214 3 100 2
110 -23 152 -26 44 -18 57 16 29 8 -6 46 -14 84 -18 39 -3 82 -9 97 -11 24 -5
32 2 75 61 l48 67 3 -53 c1 -30 4 -64 7 -76z m-2958 107 c155 -20 139 -11 158
-92 9 -39 15 -72 13 -73 -2 -1 -31 -17 -66 -34 -72 -36 -78 -34 -107 29 l-18
40 -243 0 c-278 0 -276 1 -288 -87 -12 -92 -45 -83 299 -83 282 0 309 -1 344
-19 49 -25 56 -35 76 -105 22 -74 16 -246 -10 -318 l-16 -47 -67 -8 c-37 -4
-218 -8 -402 -8 -304 0 -338 2 -363 18 -35 23 -67 86 -74 148 l-6 49 44 0 c24
0 60 3 80 6 25 4 40 1 51 -10 9 -8 35 -25 59 -38 42 -22 55 -23 269 -24 271
-2 260 -7 260 108 l0 78 -314 0 -314 0 -41 43 -41 42 0 183 c0 137 3 184 13
187 59 21 574 32 704 15z m1203 -394 l0 -273 68 -6 c124 -12 380 -8 389 6 4 6
10 128 13 269 3 141 7 259 10 262 3 2 37 6 75 7 63 2 70 1 72 -17 1 -10 7
-122 13 -249 11 -207 11 -237 -4 -300 -30 -125 20 -111 -399 -114 l-366 -3 -5
24 c-17 77 -28 198 -33 385 -5 187 -4 215 11 237 18 28 60 44 119 45 l37 1 0
-274z"/>
<path d="M7765 2836 c-55 -13 -126 -27 -157 -30 l-58 -7 0 -44 c0 -42 3 -47
51 -85 29 -22 57 -39 63 -37 5 2 24 23 41 48 25 35 39 45 65 47 l33 3 -6 -80
c-7 -93 -4 -95 71 -61 42 19 182 148 182 167 0 8 -171 104 -182 102 -1 0 -48
-11 -103 -23z"/>
<path d="M13584 2793 c-15 -21 -39 -54 -54 -73 -14 -19 -34 -48 -44 -65 -18
-30 -85 -120 -118 -160 -28 -34 -378 -506 -468 -630 -130 -180 -173 -233 -200
-245 -13 -6 -56 -14 -95 -16 -38 -3 -88 -14 -111 -25 -43 -20 -50 -31 -90
-157 -24 -77 -51 -112 -124 -159 -116 -76 -109 -68 -103 -115 7 -55 15 -63 44
-45 78 47 182 98 169 81 -9 -10 -26 -39 -39 -64 -13 -25 -32 -59 -42 -76 -10
-17 -16 -34 -13 -37 7 -7 97 27 131 49 20 12 27 11 74 -14 45 -23 65 -27 134
-27 115 0 174 38 222 143 30 65 32 136 8 251 -10 45 -16 83 -14 85 8 6 180
121 198 131 9 6 53 33 97 61 93 61 456 292 542 346 15 10 39 24 54 33 29 16
96 60 113 73 6 4 35 23 65 43 257 166 358 232 378 247 18 14 24 31 28 77 3 33
2 56 -3 50 -4 -5 -46 -30 -93 -54 -47 -24 -130 -73 -185 -109 -55 -36 -219
-142 -365 -235 -146 -94 -312 -201 -370 -238 -209 -134 -432 -270 -437 -266
-5 6 33 60 171 247 55 74 125 169 155 210 31 41 58 77 61 80 3 3 31 39 61 80
31 41 101 136 156 210 55 74 117 161 138 193 21 31 42 57 46 57 5 0 9 5 9 10
0 6 10 24 22 40 12 16 20 32 17 34 -2 2 -25 7 -50 11 -45 7 -47 6 -75 -32z"/>
</g>
</svg>
